<?xml version="1.0" standalone="no"?>
<!DOCTYPE svg PUBLIC "-//W3C//DTD SVG 20010904//EN"
 "http://www.w3.org/TR/2001/REC-SVG-20010904/DTD/svg10.dtd">
<svg version="1.0" xmlns="http://www.w3.org/2000/svg"
 width="500.000000pt" height="500.000000pt" viewBox="0 0 500.000000 500.000000"
 preserveAspectRatio="xMidYMid meet">

<g transform="translate(0.000000,500.000000) scale(0.100000,-0.100000)"
fill="#000000" stroke="none">
<path d="M2266 4609 c-621 -85 -1151 -418 -1492 -939 -134 -205 -227 -422
-278 -650 -77 -346 -69 -667 24 -1027 44 -170 90 -277 216 -497 101 -177 343
-438 540 -583 261 -191 594 -332 894 -379 140 -22 403 -29 550 -15 695 68
1317 501 1637 1141 93 185 156 404 189 650 40 303 -9 714 -117 988 -46 117
-164 337 -230 430 -125 175 -256 313 -432 455 -240 194 -575 348 -892 408
-125 24 -487 35 -609 18z m594 -178 c577 -127 1055 -494 1343 -1031 58 -108
130 -319 164 -480 25 -114 27 -144 27 -355 1 -215 -1 -238 -27 -358 -38 -173
-100 -363 -154 -472 -139 -278 -389 -559 -658 -741 -265 -179 -534 -278 -860
-314 -584 -65 -1187 172 -1603 630 -262 287 -396 572 -469 995 -23 134 -22
402 1 540 39 232 122 467 223 634 77 127 95 153 164 241 77 97 265 285 354
352 247 187 531 310 850 369 143 26 506 21 645 -10z"/>
<path d="M2320 4405 c-493 -62 -925 -300 -1245 -685 -92 -110 -100 -122 -182
-260 -138 -232 -233 -563 -233 -811 l0 -80 32 3 33 3 6 120 c8 142 38 303 80
423 50 142 152 339 223 432 111 145 182 225 199 224 10 -1 13 4 9 14 -4 11 -1
14 12 9 9 -4 15 -3 12 2 -3 5 3 20 15 32 11 13 18 19 15 12 -4 -6 -2 -13 4
-15 6 -2 -22 -39 -61 -83 -75 -86 -164 -203 -157 -210 2 -2 21 -16 42 -30 35
-23 40 -25 48 -11 40 72 259 307 338 363 80 58 204 139 250 166 122 69 429
175 470 162 12 -4 20 -2 20 4 0 14 27 14 35 1 4 -6 -1 -7 -12 -3 -10 3 -15 3
-11 -2 4 -4 -41 -21 -100 -36 -283 -73 -540 -217 -743 -419 -152 -151 -224
-245 -314 -413 -106 -198 -161 -395 -172 -607 l-6 -125 34 31 c19 18 44 37 57
43 17 9 22 20 22 48 0 102 51 342 95 447 30 72 26 28 -8 -86 -33 -106 -47
-178 -62 -321 l-7 -58 41 20 c22 12 49 21 61 21 12 0 20 7 21 18 0 9 2 25 4
34 2 9 6 34 9 55 13 87 19 105 30 78 4 -11 2 -14 -7 -9 -6 4 -4 -2 7 -14 20
-23 45 -20 25 4 -6 8 -8 15 -3 15 5 1 15 2 23 3 21 2 22 36 2 55 -9 9 -11 12
-4 8 14 -10 36 0 28 13 -3 5 0 12 7 16 7 4 10 4 6 -1 -4 -4 0 -14 10 -22 15
-11 15 -12 1 -7 -21 7 -34 -12 -14 -20 16 -6 61 31 50 42 -3 4 -10 1 -14 -7
-6 -10 -10 -9 -15 5 -4 10 -4 15 0 11 4 -4 18 0 31 9 18 11 28 13 38 4 11 -9
12 -7 8 10 -3 13 -11 19 -19 16 -8 -3 -14 -1 -14 5 0 6 -5 7 -12 3 -7 -4 -8
-3 -4 4 4 8 15 8 31 2 24 -9 29 -6 26 15 -1 6 7 -1 18 -15 17 -22 19 -22 16
-5 -2 11 -4 23 -4 28 -1 4 -7 7 -14 7 -17 0 -139 124 -131 133 13 13 25 7 61
-30 19 -21 32 -31 28 -23 -3 8 1 6 9 -4 9 -11 16 -23 16 -27 0 -4 14 -9 30
-11 22 -3 30 0 31 11 0 11 2 12 6 4 2 -7 16 -13 31 -13 14 0 22 3 18 8 -4 4
-12 7 -17 7 -5 0 -9 3 -9 8 0 4 0 10 0 13 0 4 6 1 14 -5 10 -8 16 -9 21 -1 8
12 -13 21 -40 16 -11 -2 -23 1 -26 5 -3 5 -17 10 -31 11 -15 1 -25 5 -23 9 2
3 -11 21 -30 39 -32 31 -45 60 -29 60 4 0 26 -18 50 -40 35 -32 51 -40 82 -40
23 0 50 -8 63 -18 23 -17 92 -22 106 -8 4 3 13 0 21 -7 13 -10 15 -9 9 6 -6
16 -5 16 21 0 22 -15 25 -15 15 -2 -7 9 -10 19 -6 22 3 4 -15 7 -41 7 -27 0
-45 -4 -41 -9 3 -5 1 -12 -4 -16 -6 -3 -8 3 -6 13 4 23 -65 95 -116 120 -19 9
-36 26 -38 37 -3 19 -3 19 16 3 11 -10 28 -18 38 -18 11 0 41 -21 66 -46 38
-38 56 -48 89 -51 32 -3 45 0 56 14 13 16 14 16 8 1 -7 -20 3 -22 40 -8 21 8
24 7 20 -8 -5 -16 -4 -16 9 1 8 9 20 17 28 17 11 0 11 -2 -1 -11 -12 -8 -12
-10 -1 -7 21 6 22 37 1 48 -10 6 -64 10 -118 10 -98 0 -101 1 -128 29 -22 24
-33 28 -60 24 -26 -4 -33 -1 -38 14 -16 52 38 74 68 28 31 -46 60 -58 164 -61
115 -4 132 -8 175 -35 17 -12 23 -18 12 -14 -15 5 -17 3 -8 -6 12 -12 37 -3
28 11 -3 4 3 18 13 30 17 21 19 22 36 5 20 -20 35 -13 17 9 -6 7 -34 16 -61
18 -37 4 -56 12 -75 32 -21 23 -32 26 -90 26 -37 0 -65 4 -65 10 0 10 4 11 96
12 41 0 63 -5 84 -20 18 -14 47 -22 79 -24 28 -2 51 -6 51 -10 0 -5 7 -8 16
-8 10 0 14 5 10 16 -3 9 -2 12 5 9 6 -4 8 -13 5 -20 -2 -7 5 -21 17 -32 20
-16 20 -16 8 0 -12 15 -12 20 -1 30 8 8 11 8 7 1 -9 -16 19 -39 28 -24 4 6 1
9 -6 8 -7 -2 -13 3 -14 10 0 6 -4 11 -8 10 -5 -2 -15 8 -22 22 -7 14 -16 24
-19 23 -21 -9 -59 1 -84 22 -17 14 -38 25 -49 25 -25 0 -119 95 -103 105 7 4
29 -9 54 -34 27 -26 51 -41 67 -41 14 0 34 -9 44 -20 10 -11 26 -20 36 -20 26
0 119 -42 113 -51 -2 -4 0 -10 6 -14 5 -3 10 -1 10 4 0 6 7 11 15 11 8 0 15 5
15 11 0 6 -6 9 -13 6 -8 -3 -14 3 -14 16 -3 36 -52 77 -93 77 -29 0 -44 8 -75
40 -34 35 -45 40 -82 40 -28 0 -54 7 -71 20 -21 15 -45 21 -106 23 -62 1 -81
6 -90 20 -22 34 27 73 59 47 8 -7 15 -21 15 -31 0 -16 8 -19 59 -19 40 0 63
-5 71 -15 8 -10 30 -15 63 -15 44 0 55 -4 93 -40 35 -32 51 -40 82 -40 34 0
45 -7 91 -54 28 -30 51 -50 51 -45 0 6 5 7 10 4 6 -3 10 -2 10 3 0 6 -7 12
-15 16 -8 3 -15 14 -15 24 0 24 -247 262 -271 262 -24 0 -39 29 -28 58 15 40
69 22 69 -23 0 -15 29 -48 88 -101 48 -43 103 -95 123 -116 20 -21 43 -38 51
-38 8 0 22 -8 32 -18 15 -18 15 -20 -4 -37 -29 -26 -25 -41 12 -40 29 0 33 4
40 38 4 21 13 48 19 59 10 19 1 31 -91 119 -100 97 -103 99 -150 99 -53 0 -60
8 -60 70 0 32 -4 39 -24 44 -56 14 -53 122 5 151 55 29 121 -14 123 -80 1 -23
11 -44 31 -65 36 -38 26 -51 -14 -17 -27 23 -34 24 -61 14 -26 -10 -30 -16
-30 -48 0 -36 1 -36 48 -43 39 -5 58 -15 93 -49 106 -101 162 -148 172 -144 7
2 13 27 15 57 l3 53 -30 -6 c-24 -5 -34 -1 -48 16 -10 12 -24 22 -30 23 -27 2
-31 4 -37 19 -10 27 5 46 33 43 19 -2 27 -10 29 -28 2 -14 9 -31 14 -37 12
-14 68 -18 68 -5 0 10 -104 110 -170 164 -41 34 -43 38 -32 62 20 44 81 23 69
-24 -4 -14 16 -40 79 -102 l83 -83 2 -73 c2 -60 -1 -76 -18 -95 -93 -101 -32
-257 100 -257 135 0 196 163 95 257 -21 20 -23 28 -18 97 l5 76 82 82 c60 61
83 91 85 113 2 24 8 31 31 33 18 2 29 -2 33 -12 9 -22 -4 -66 -19 -66 -14 0
-187 -158 -187 -171 0 -5 13 -9 28 -9 31 0 58 23 64 55 4 26 53 33 62 9 8 -20
-22 -57 -41 -50 -7 3 -17 -4 -23 -14 -8 -15 -21 -20 -50 -20 l-40 0 0 -44 c0
-27 6 -48 15 -56 18 -15 23 -11 151 113 70 68 83 75 137 76 24 1 27 5 27 35 0
28 -5 37 -29 49 -28 14 -30 13 -59 -15 -40 -41 -51 -19 -12 25 19 22 30 45 30
65 0 47 39 86 85 86 29 0 43 -7 61 -28 39 -44 26 -120 -21 -132 -21 -5 -25
-12 -25 -44 0 -62 -7 -70 -59 -70 -45 -1 -49 -4 -147 -99 -100 -97 -101 -98
-87 -125 8 -15 15 -43 16 -62 2 -31 15 -49 18 -24 1 6 2 14 3 19 0 5 5 13 10
18 5 5 6 3 2 -4 -4 -7 -2 -13 3 -13 6 0 11 -8 12 -17 0 -10 3 -13 5 -6 3 7 12
9 20 6 7 -3 11 -10 7 -16 -3 -6 -1 -7 6 -3 6 4 9 12 6 17 -4 5 1 9 10 9 9 0
36 20 61 45 37 38 49 45 83 45 32 0 49 8 86 40 39 33 53 40 89 40 27 0 48 6
56 15 14 17 130 22 130 5 0 -5 -22 -10 -49 -10 -33 0 -56 -6 -74 -20 -15 -12
-40 -20 -62 -20 -30 0 -47 -8 -81 -40 -35 -32 -51 -40 -82 -40 -34 0 -44 -6
-84 -53 l-46 -53 41 3 c22 2 49 11 59 20 11 9 35 18 54 18 20 1 44 11 57 23
13 12 33 22 46 22 14 0 38 17 63 45 45 49 78 62 57 23 -21 -41 -86 -98 -111
-98 -14 0 -35 -11 -48 -25 -15 -16 -34 -25 -55 -25 -20 0 -39 -8 -53 -22 l-21
-23 25 0 c13 0 24 3 24 8 0 4 5 7 11 7 5 0 7 -4 4 -10 -3 -5 15 -1 40 10 25
11 43 15 40 10 -12 -19 42 -10 69 11 20 16 41 21 84 21 90 -1 94 -1 87 -12 -3
-5 -32 -10 -64 -10 -50 0 -64 -4 -96 -30 -36 -28 -56 -35 -97 -31 -10 1 -18
-3 -18 -9 0 -6 11 -8 25 -6 13 3 27 1 30 -4 3 -4 14 -6 25 -3 11 3 20 0 20 -6
0 -9 5 -9 22 0 12 6 67 12 123 13 91 1 105 4 138 26 20 13 38 33 41 42 2 11
14 18 29 18 32 0 41 -13 32 -47 -5 -21 -10 -24 -36 -21 -24 4 -37 -2 -59 -24
-27 -27 -32 -28 -128 -28 -73 0 -103 -4 -111 -14 -14 -17 0 -29 23 -20 9 3 16
2 16 -4 0 -15 37 -21 51 -8 9 8 10 8 5 -1 -4 -7 -3 -13 3 -13 5 0 11 6 14 13
3 9 7 9 20 -2 14 -11 17 -11 17 0 0 11 2 11 10 -1 7 -11 10 -11 10 -2 0 7 4
11 8 8 13 -8 53 24 46 36 -4 6 -3 8 3 5 6 -4 21 5 33 18 13 14 34 25 46 25 12
0 30 7 39 16 18 19 28 14 20 -9 -4 -8 -21 -21 -38 -28 -18 -7 -53 -34 -78 -61
-43 -46 -48 -48 -100 -48 -37 0 -49 -3 -39 -9 8 -6 18 -7 22 -5 4 3 8 -3 9
-13 0 -16 1 -16 8 2 l8 20 5 -20 c5 -16 6 -17 7 -2 1 10 9 17 22 17 11 0 18
-4 15 -9 -4 -5 3 -7 14 -4 11 3 17 10 13 16 -3 6 -1 7 6 3 9 -6 9 -11 1 -21
-16 -19 8 -14 40 8 14 10 43 17 68 17 36 0 49 6 85 41 33 31 43 36 45 23 5
-23 -67 -94 -95 -94 -34 0 -96 -28 -88 -40 3 -5 8 -10 11 -10 3 0 2 5 -1 10
-3 6 -1 10 4 10 6 0 11 -4 11 -10 0 -5 7 -10 15 -10 8 0 15 7 15 15 0 8 4 15
9 15 5 0 7 -9 4 -20 -6 -23 6 -26 26 -7 11 10 13 10 7 0 -17 -31 24 -9 69 37
46 46 75 62 75 41 0 -5 -34 -44 -76 -87 -42 -44 -70 -73 -63 -66 19 17 29 15
23 -5 -4 -14 -3 -15 4 -5 14 20 20 19 36 -4 14 -20 72 -32 61 -13 -3 4 -1 10
4 13 13 8 8 -19 -7 -36 -9 -12 -8 -14 10 -14 11 1 23 -6 25 -14 4 -13 3 -13
-6 0 -6 8 -11 10 -11 4 0 -6 7 -17 15 -24 14 -12 20 -7 16 14 -1 5 6 3 15 -5
16 -12 17 -12 11 3 -4 12 -2 15 9 11 9 -3 11 -10 6 -17 -5 -6 -12 -19 -15 -28
-5 -14 2 -13 38 7 24 14 55 25 69 25 33 0 32 6 -3 118 -16 51 -25 92 -21 92 9
0 43 -87 61 -158 10 -40 20 -57 40 -67 65 -34 82 -116 36 -182 -15 -22 -27
-53 -27 -71 0 -27 6 -35 38 -51 45 -23 60 -40 72 -78 7 -25 8 -24 9 17 1 76
-18 265 -35 337 -118 510 -508 954 -1013 1154 -99 39 -284 89 -329 89 -22 0
-22 0 -5 -32 10 -19 17 -54 16 -84 -1 -96 -11 -123 -70 -186 -31 -32 -60 -58
-65 -58 -18 0 -6 23 33 63 73 74 89 156 46 232 -59 104 -184 125 -272 44 -89
-82 -84 -188 14 -284 43 -42 49 -55 28 -55 -15 0 -100 86 -116 118 -7 13 -15
53 -18 91 -5 55 -2 76 16 115 25 58 25 60 6 52 -8 -3 -15 -1 -15 4 0 5 10 9
23 8 13 -1 36 7 53 19 16 11 48 26 72 32 l42 12 0 74 0 75 -32 -1 c-18 -1 -80
-7 -138 -14z m250 -250 c81 -42 94 -186 19 -225 -19 -11 -20 -10 -7 10 33 56
38 66 38 88 0 63 -57 122 -120 122 -29 0 -76 -26 -94 -52 -23 -32 -21 -109 4
-141 25 -32 25 -41 1 -28 -19 11 -51 78 -51 108 0 31 42 103 68 118 35 19 106
19 142 0z m-22 -71 c31 -22 30 -73 -3 -104 -25 -23 -25 -24 -25 -213 0 -190 0
-190 25 -213 46 -42 28 -108 -32 -120 -26 -5 -37 -1 -57 19 -33 33 -33 57 -1
95 25 30 25 32 25 217 0 185 0 187 -25 217 -32 38 -32 71 1 97 32 25 61 27 92
5z m-648 -141 c0 -5 -33 -26 -72 -48 -135 -75 -213 -133 -313 -231 l-100 -99
53 -3 c73 -4 65 -22 -10 -22 l-63 0 -38 -55 c-21 -30 -43 -55 -48 -55 -12 0
-10 3 50 90 46 66 167 190 253 260 40 32 166 111 253 158 24 13 35 15 35 5z
m1329 -55 c136 -79 218 -144 349 -277 33 -34 108 -138 118 -166 14 -35 -15
-11 -47 40 l-34 55 -62 0 c-80 0 -93 18 -16 22 l58 3 -75 73 c-112 110 -194
173 -305 237 -108 62 -127 75 -105 75 7 0 61 -28 119 -62z m-129 -53 c16 -20
3 -54 -24 -61 -26 -6 -270 -237 -272 -256 -2 -31 -5 -36 -19 -42 -46 -17 -62
48 -17 70 12 6 76 62 142 123 84 78 120 119 120 135 0 42 44 62 70 31z m-1236
-86 c31 -28 56 -55 56 -60 0 -21 -29 -6 -70 36 -43 43 -46 45 -104 45 -82 0
-54 26 31 29 25 1 43 -10 87 -50z m1415 42 c47 -13 34 -28 -21 -24 -51 4 -55
3 -105 -41 -28 -25 -54 -46 -57 -46 -19 0 0 30 46 72 53 49 77 56 137 39z m95
-83 c19 -27 5 -58 -27 -58 -43 0 -60 35 -31 64 21 22 40 20 58 -6z m-1685
-124 c17 -14 31 -32 31 -40 0 -10 14 -14 50 -14 38 0 50 -4 50 -15 0 -11 -12
-15 -46 -15 -38 0 -51 -5 -74 -30 -34 -36 -75 -39 -114 -9 -36 28 -37 89 -1
124 31 32 66 32 104 -1z m1725 5 c21 -16 26 -29 26 -64 0 -83 -73 -113 -132
-55 -25 25 -37 30 -79 30 -37 0 -49 4 -49 15 0 12 13 15 55 15 48 0 55 3 55
19 0 24 45 61 75 61 12 0 34 -9 49 -21z m-690 -67 c3 -5 -1 -9 -9 -9 -8 0 -12
4 -9 9 3 4 7 8 9 8 2 0 6 -4 9 -8z m-124 -101 c-28 -53 -117 -69 -171 -30 -16
11 -29 25 -29 31 0 5 14 -2 31 -16 44 -37 98 -36 141 4 39 35 42 36 28 11z
m-1383 -59 c-22 -24 -22 -76 -1 -97 21 -20 12 -30 -15 -16 -28 16 -38 74 -17
106 9 14 24 25 33 25 15 0 15 -1 0 -18z m2597 -4 c9 -12 16 -34 16 -48 0 -31
-26 -70 -46 -70 -12 0 -11 5 5 26 12 15 21 34 21 44 0 10 -9 29 -21 44 -16 21
-17 26 -5 26 8 0 22 -10 30 -22z m-2520 -4 c9 -8 16 -24 16 -34 0 -22 -25 -50
-45 -50 -19 0 -45 28 -45 47 0 20 29 53 46 53 7 0 20 -7 28 -16z m2468 -1 c40
-36 10 -96 -37 -75 -27 13 -35 58 -13 80 16 16 28 15 50 -5z m-88 -302 c-3 -3
-15 6 -27 18 l-22 24 27 -19 c14 -10 24 -21 22 -23z m73 -36 c0 -8 -4 -12 -9
-9 -5 3 -6 10 -3 15 9 13 12 11 12 -6z m-2478 -74 c-7 -2 -6 -7 2 -13 11 -8
11 -9 -2 -5 -9 3 -21 1 -26 -4 -7 -7 -12 -3 -16 11 -4 17 -3 19 9 9 17 -14 19
2 2 19 -9 9 -5 9 15 0 14 -7 21 -15 16 -17z"/>
<path d="M1600 3560 c-24 -24 -25 -38 -4 -68 28 -41 94 -22 94 28 0 55 -52 78
-90 40z m56 -31 c10 -17 -13 -36 -27 -22 -12 12 -4 33 11 33 5 0 12 -5 16 -11z"/>
<path d="M3323 3554 c-15 -24 -15 -29 -2 -53 27 -49 99 -32 99 23 0 28 -29 56
-58 56 -12 0 -29 -11 -39 -26z m63 -25 c10 -17 -13 -36 -27 -22 -12 12 -4 33
11 33 5 0 12 -5 16 -11z"/>
<path d="M2517 4414 c-4 -4 -7 -38 -7 -75 l0 -68 40 -11 c22 -6 57 -21 77 -33
21 -12 48 -20 61 -18 13 1 22 -1 19 -6 -3 -5 7 -7 23 -5 17 2 38 1 47 -3 10
-4 27 -9 38 -10 171 -24 451 -154 650 -304 119 -90 283 -258 351 -361 25 -38
27 -39 53 -25 69 36 69 35 18 106 -25 36 -73 95 -107 132 -34 36 -59 71 -55
77 3 6 0 7 -9 4 -9 -3 -16 -2 -17 2 0 5 -2 17 -4 26 -5 28 22 8 95 -69 148
-155 226 -267 320 -453 100 -201 154 -400 166 -620 l7 -120 35 0 35 0 -7 103
c-8 132 -20 205 -57 350 -38 154 -81 259 -169 412 -92 161 -165 257 -298 392
-144 147 -186 182 -321 270 -194 127 -342 192 -571 253 -137 37 -396 71 -413
54z"/>
<path d="M2005 3995 c-29 -28 -31 -42 -9 -73 31 -45 114 -18 114 38 0 21 -41
60 -64 60 -9 0 -28 -11 -41 -25z m63 -7 c19 -19 14 -56 -8 -63 -24 -8 -50 10
-50 34 0 19 19 41 35 41 6 0 16 -5 23 -12z"/>
<path d="M2916 4001 c-27 -30 -18 -83 18 -100 25 -12 31 -11 55 6 33 26 39 65
12 92 -26 26 -63 27 -85 2z m69 -17 c19 -20 16 -43 -7 -58 -38 -23 -78 35 -42
61 23 17 29 16 49 -3z"/>
<path d="M1276 3813 c-6 -14 -5 -15 5 -6 7 7 10 15 7 18 -3 3 -9 -2 -12 -12z"/>
<path d="M3903 3488 c-24 -16 -43 -31 -43 -33 0 -2 12 -21 26 -42 40 -58 118
-221 154 -322 l32 -90 47 6 c25 3 47 7 49 8 5 4 -64 196 -100 280 -26 60 -103
200 -122 222 0 0 -20 -12 -43 -29z"/>
<path d="M1047 3493 c-25 -28 -93 -161 -131 -254 -34 -85 -79 -220 -74 -224 2
-1 23 -5 48 -8 l45 -6 24 77 c28 86 94 225 144 304 18 29 36 58 40 65 5 7 -7
22 -30 37 -45 31 -46 31 -66 9z"/>
<path d="M2996 3333 c-6 -14 -5 -15 5 -6 7 7 10 15 7 18 -3 3 -9 -2 -12 -12z"/>
<path d="M2010 3306 c0 -2 8 -10 18 -17 15 -13 16 -12 3 4 -13 16 -21 21 -21
13z"/>
<path d="M2687 3262 c-20 -22 -21 -42 -5 -78 11 -25 10 -29 -29 -63 -26 -23
-43 -47 -46 -66 -2 -16 -10 -51 -18 -77 -11 -41 -11 -54 4 -101 9 -30 17 -72
17 -94 0 -22 6 -46 14 -52 23 -19 26 -149 5 -186 -14 -24 -17 -51 -16 -132 l2
-102 134 0 c73 0 131 2 128 5 -3 3 -20 13 -39 22 l-33 17 1 76 c1 49 7 88 19
112 16 35 16 41 1 103 -9 37 -26 84 -36 105 -33 64 -23 76 30 37 18 -13 30
-31 30 -45 0 -13 5 -23 11 -23 6 0 8 -7 5 -16 -4 -10 -1 -14 6 -12 24 8 20 62
-6 98 -84 115 -81 109 -81 189 -1 57 -5 83 -19 103 -23 34 -15 58 19 58 26 0
26 1 20 58 -4 36 -12 62 -22 70 -25 18 -77 15 -96 -6z m68 -179 c14 -21 24
-47 24 -58 -1 -19 -1 -19 -6 0 -3 11 -16 33 -29 51 -23 30 -29 44 -19 44 2 0
16 -17 30 -37z m-103 -221 c-8 -24 -10 -21 -16 30 -9 70 5 102 17 40 5 -25 4
-54 -1 -70z m115 -4 c-2 -24 -4 -7 -4 37 0 44 2 63 4 43 2 -21 2 -57 0 -80z
m-9 -303 c-17 -30 -18 -45 -12 -128 4 -59 3 -97 -3 -100 -17 -11 -74 17 -79
38 -6 24 19 146 40 197 9 21 16 47 16 60 0 21 1 21 29 -6 l29 -28 -20 -33z"/>
<path d="M1734 3212 c4 -3 14 -7 22 -8 9 -1 13 0 10 4 -4 3 -14 7 -22 8 -9 1
-13 0 -10 -4z"/>
<path d="M2407 3180 c-14 -11 -29 -35 -32 -53 -4 -17 -20 -58 -36 -89 -16 -31
-36 -83 -45 -115 -16 -57 -15 -59 10 -127 14 -37 23 -73 20 -78 -4 -6 10 -42
31 -82 l38 -71 -60 -62 c-33 -35 -67 -63 -76 -63 -22 0 -22 4 14 -68 21 -44
36 -62 50 -62 23 0 25 15 4 24 -24 9 -19 69 8 92 25 22 84 64 90 64 4 0 -5
-63 -18 -137 l-8 -43 82 0 c89 0 98 11 26 29 -28 7 -45 17 -45 26 0 8 18 52
39 97 39 81 39 82 25 129 -8 27 -28 76 -43 109 -26 55 -31 100 -11 100 14 0
41 -39 51 -73 7 -26 14 -34 24 -30 23 8 19 26 -25 113 -32 63 -40 91 -40 133
0 32 -6 61 -16 75 -15 21 -15 25 2 43 9 10 28 19 41 19 19 0 23 5 23 30 0 17
-4 30 -10 30 -5 0 -10 9 -10 20 0 13 -10 24 -26 30 -36 14 -48 13 -77 -10z
m90 -16 c-3 -3 -12 -4 -19 -1 -8 3 -5 6 6 6 11 1 17 -2 13 -5z m-30 -186 c-3
-8 -6 -5 -6 6 -1 11 2 17 5 13 3 -3 4 -12 1 -19z m-99 -146 l-4 -37 -10 35
c-6 19 -8 43 -6 54 8 32 24 -9 20 -52z m96 14 c-3 -21 -8 -35 -11 -32 -2 2 -1
20 3 40 3 21 8 35 11 32 2 -2 1 -20 -3 -40z"/>
<path d="M3093 3180 c-18 -7 -23 -17 -23 -43 0 -18 6 -39 12 -45 10 -10 5 -20
-23 -47 -29 -27 -40 -49 -57 -112 -21 -81 -38 -273 -25 -273 27 1 35 22 39
109 4 92 17 144 27 111 15 -45 15 -66 0 -90 -11 -19 -13 -37 -8 -56 4 -16 8
-62 9 -102 1 -68 -1 -75 -26 -99 -17 -16 -35 -50 -44 -85 -9 -32 -23 -63 -30
-69 -8 -6 -14 -17 -14 -23 1 -14 69 -46 100 -46 23 0 23 1 -10 29 -34 28 -34
29 -20 57 8 15 36 57 63 93 26 36 47 74 47 83 0 24 16 23 34 -3 10 -16 12 -28
5 -46 -14 -37 -11 -69 10 -107 11 -19 21 -49 23 -68 l3 -33 68 -3 c42 -2 67 1
67 8 0 5 -9 10 -20 10 -28 0 -68 20 -76 39 -4 9 -8 61 -10 116 -2 110 -14 166
-50 236 -24 49 -23 62 4 52 27 -10 49 -37 44 -53 -5 -13 -3 -13 11 -1 30 24
20 54 -24 79 -37 21 -40 26 -34 54 5 21 4 28 -4 24 -6 -4 -11 0 -11 9 0 9 4
13 10 10 5 -3 31 3 56 14 26 12 53 21 60 21 8 0 14 5 14 10 0 6 -7 10 -15 10
-8 0 -15 5 -15 11 0 6 7 8 16 5 8 -3 12 -2 9 4 -10 16 -30 12 -49 -9 -9 -10
-28 -21 -42 -24 -20 -4 -24 0 -24 22 0 21 -2 23 -11 11 -9 -12 -10 -11 -6 7 3
13 0 26 -5 30 -7 4 -8 1 -3 -7 5 -8 4 -11 -2 -7 -9 5 -10 27 -4 59 0 4 11 8
23 10 16 2 22 10 22 28 -1 45 -15 90 -29 90 -7 0 -19 2 -27 4 -7 3 -23 1 -35
-4z"/>
<path d="M3435 3113 c-13 -13 -16 -27 -11 -59 5 -38 2 -45 -20 -61 -15 -11
-42 -56 -65 -108 -37 -83 -39 -94 -35 -160 3 -38 5 -73 6 -77 0 -4 9 -12 19
-17 18 -10 19 -7 15 30 -2 22 -6 44 -9 49 -7 12 23 106 39 119 20 16 28 -32
14 -87 -8 -31 -8 -50 1 -68 6 -14 11 -49 11 -78 0 -46 -4 -56 -24 -70 -18 -11
-27 -28 -32 -63 -3 -27 -13 -60 -20 -75 -8 -15 -14 -31 -14 -35 0 -14 61 -43
91 -43 35 0 38 16 4 24 -48 12 -49 38 -2 116 23 39 48 83 55 96 22 40 42 14
36 -44 -5 -37 0 -59 20 -102 14 -30 26 -63 26 -72 0 -15 9 -18 58 -17 48 0 54
2 38 12 -54 34 -67 53 -76 112 -6 33 -7 74 -4 90 6 32 -26 127 -52 156 -8 9
-11 19 -7 24 5 4 3 5 -4 1 -6 -3 -14 -2 -18 4 -3 5 -2 10 4 10 5 0 13 20 17
45 5 39 11 48 38 60 42 19 71 46 78 73 8 30 -27 30 -43 0 -14 -26 -28 -38 -48
-38 -10 0 -12 9 -7 33 5 26 1 40 -15 61 -24 30 -19 56 11 56 17 0 20 6 20 41
0 28 -4 38 -12 33 -8 -5 -9 -2 -5 9 12 33 -50 49 -78 20z m63 -173 l16 -25
-29 25 c-17 14 -32 27 -35 29 -3 2 3 2 14 0 10 -2 26 -15 34 -29z"/>
<path d="M2112 3061 c-15 -15 -40 -49 -55 -74 -27 -45 -28 -52 -30 -189 -2
-141 -2 -144 30 -213 l31 -69 -50 -59 -51 -58 42 -43 c41 -41 43 -42 116 -44
47 -2 75 1 75 8 0 5 -8 10 -17 10 -10 0 -27 7 -37 15 -19 14 -18 17 24 98 l44
84 -18 46 c-9 25 -27 61 -40 79 -34 51 -38 68 -17 68 21 0 51 -40 51 -68 0
-28 12 -34 27 -13 9 14 10 27 3 45 -14 37 -85 112 -120 126 -25 11 -29 16 -23
39 8 36 13 39 13 8 0 -17 8 -30 21 -38 31 -16 41 4 36 77 l-5 62 39 6 c30 5
39 11 39 26 0 31 -22 70 -39 70 -13 0 -13 2 -3 9 11 7 10 10 -3 15 -33 12 -57
6 -83 -23z m18 -121 c0 -10 -4 -22 -10 -25 -6 -4 -10 7 -10 25 0 18 4 29 10
25 6 -3 10 -15 10 -25z m33 -405 c4 -8 2 -17 -3 -20 -6 -4 -10 3 -10 14 0 25
6 27 13 6z m-43 -126 c-6 -13 -17 -34 -24 -46 l-12 -22 -18 30 c-17 29 -17 31
1 44 10 8 26 17 36 20 9 4 18 12 18 18 1 7 3 5 6 -4 2 -8 -1 -26 -7 -40z"/>
<path d="M1820 3023 c-52 -54 -83 -140 -77 -218 12 -138 28 -247 41 -280 14
-32 14 -35 -2 -35 -21 -1 -50 -17 -91 -52 l-31 -27 28 -48 c21 -36 35 -49 55
-51 33 -4 35 10 5 23 -15 7 -24 20 -26 40 -3 28 1 31 50 49 71 25 75 29 83 88
l7 51 18 -23 c12 -16 15 -30 10 -40 -4 -8 -7 -55 -7 -103 l2 -87 63 0 c34 0
62 2 62 5 0 3 -18 12 -40 21 l-40 16 8 57 c14 109 9 152 -25 217 l-32 61 10
94 c5 54 6 96 0 102 -5 5 -7 -3 -4 -20 3 -20 2 -24 -5 -13 -16 25 -25 63 -14
56 6 -3 15 8 21 24 8 26 15 30 45 30 30 0 36 4 36 21 0 11 -4 17 -10 14 -5 -3
-7 0 -4 8 7 19 -42 57 -74 57 -15 0 -39 -14 -62 -37z m114 8 c3 -4 -6 -6 -19
-3 -14 2 -25 6 -25 8 0 8 39 4 44 -5z m-63 -272 c-9 -23 -10 -23 -10 -2 -1 12
2 30 6 40 6 15 8 15 11 2 1 -8 -2 -26 -7 -40z m14 -101 c9 -16 15 -28 13 -28
-8 0 -58 75 -58 85 0 9 10 -3 45 -57z"/>
<path d="M3610 3039 c0 -5 5 -7 10 -4 6 3 10 8 10 11 0 2 -4 4 -10 4 -5 0 -10
-5 -10 -11z"/>
<path d="M826 2968 c-12 -48 -8 -58 25 -56 17 1 33 6 35 10 3 4 12 4 22 1 9
-3 14 -3 10 2 -4 4 -3 16 2 26 8 14 6 19 -10 24 -11 3 -24 4 -29 0 -5 -3 -12
-1 -16 5 -11 18 -32 11 -39 -12z"/>
<path d="M4155 2980 c-3 -5 -19 -7 -34 -4 -24 5 -30 2 -36 -16 -9 -29 8 -40
63 -40 31 0 42 4 39 13 -2 7 -22 12 -50 11 -26 0 -47 3 -47 8 0 4 16 8 35 8
21 0 35 5 35 13 0 8 4 7 10 -3 6 -9 10 -10 10 -3 0 16 -17 26 -25 13z"/>
<path d="M3852 2908 c-6 -7 -12 -26 -14 -42 -1 -16 -10 -32 -18 -36 -71 -33
-75 -37 -95 -91 -11 -30 -28 -67 -38 -81 -15 -21 -16 -31 -7 -47 6 -12 14 -21
18 -21 8 0 76 -91 70 -94 -2 -1 -15 -7 -31 -14 -15 -6 -31 -22 -36 -36 -5 -13
-24 -35 -42 -49 l-33 -26 29 -30 c34 -34 82 -46 52 -13 -29 32 -19 49 56 99
62 41 73 53 77 83 3 23 8 31 13 23 5 -7 5 -18 1 -24 -4 -7 -8 -54 -8 -105 l-2
-94 60 0 c64 0 65 3 14 28 -38 20 -38 24 -12 140 16 69 16 73 -2 93 -10 12
-39 33 -64 47 -25 14 -47 27 -49 29 -6 4 30 43 40 43 5 0 13 -17 19 -39 9 -35
15 -40 56 -50 35 -9 50 -19 65 -46 22 -37 36 -44 45 -21 10 25 -15 55 -67 81
-59 30 -71 55 -67 134 3 53 4 56 33 61 29 5 50 40 25 40 -10 0 -10 3 -1 14 10
12 8 19 -8 35 -23 23 -63 28 -79 9z m146 -363 c-3 -3 -9 2 -12 12 -6 14 -5 15
5 6 7 -7 10 -15 7 -18z"/>
<path d="M1548 2852 c-18 -15 -46 -36 -63 -47 -55 -34 -127 -109 -151 -157
l-24 -47 25 -67 c24 -64 25 -84 4 -84 -6 0 -25 -11 -43 -25 -18 -14 -38 -25
-44 -25 -15 0 -15 -13 -1 -27 6 -6 17 -22 23 -35 7 -15 22 -24 41 -26 l30 -3
-24 19 c-36 29 -24 53 34 69 56 17 65 25 65 68 0 26 2 28 15 14 14 -13 12 -23
-17 -87 -17 -39 -29 -74 -26 -77 3 -4 30 -5 59 -3 52 3 53 4 27 15 -34 15 -35
27 -3 65 41 49 42 75 7 140 -30 55 -30 58 -12 68 27 14 30 13 30 -13 0 -12 8
-38 19 -57 15 -28 18 -53 16 -128 l-2 -92 53 0 c30 0 54 2 54 5 0 3 -15 11
-32 18 l-33 13 0 95 c-1 52 -5 103 -10 114 -6 16 -2 14 22 -8 27 -26 36 -57
20 -73 -13 -13 -7 -34 8 -34 17 0 35 39 35 76 0 14 -15 45 -34 69 -29 38 -33
52 -34 104 -1 51 2 63 21 76 12 8 31 15 44 15 12 0 24 4 27 9 8 13 -4 42 -15
35 -5 -3 -9 4 -9 16 0 18 -3 19 -20 10 -14 -7 -20 -7 -20 0 0 5 6 10 13 10 16
0 -13 20 -30 20 -7 0 -27 -13 -45 -28z m20 -138 c-3 -14 -5 -12 -10 9 -3 19
-2 25 4 19 6 -6 8 -18 6 -28z"/>
<path d="M1115 2630 c-10 -11 -27 -22 -39 -26 -41 -13 -95 -56 -110 -88 -9
-19 -15 -57 -15 -87 1 -30 -2 -69 -6 -86 l-7 -33 41 0 c26 0 40 4 36 10 -3 6
-13 10 -21 10 -19 0 -18 7 6 37 11 14 20 32 20 40 0 8 6 13 13 10 6 -2 11 -12
9 -21 -2 -9 7 -32 18 -51 17 -27 28 -35 51 -35 35 0 38 11 7 25 -18 8 -24 20
-26 55 -2 25 -7 49 -13 55 -14 14 -11 25 6 25 8 0 15 -6 15 -14 0 -8 11 -27
24 -43 36 -43 51 -76 37 -81 -16 -5 -14 -22 4 -22 8 0 19 9 25 21 9 17 7 31
-14 73 -44 90 -31 163 26 148 11 -3 24 1 28 8 9 15 -8 71 -24 82 -22 15 -73 8
-91 -12z m95 -10 c0 -5 -2 -10 -4 -10 -3 0 -8 5 -11 10 -3 6 -1 10 4 10 6 0
11 -4 11 -10z"/>
<path d="M659 2522 c-3 -17 2 -84 12 -167 15 -127 61 -325 104 -443 4 -10 11
-9 35 3 16 8 30 17 30 19 0 1 -12 36 -26 77 -42 122 -74 298 -86 479 -3 32 -6
35 -35 37 -18 1 -33 -2 -34 -5z"/>
<path d="M4072 2500 c0 -19 2 -27 5 -17 2 9 2 25 0 35 -3 9 -5 1 -5 -18z"/>
<path d="M4286 2519 c-2 -8 -9 -66 -15 -129 -14 -133 -48 -295 -85 -395 -14
-38 -24 -70 -23 -70 1 -1 15 -7 31 -13 33 -15 30 -17 50 32 40 97 124 552 105
570 -2 3 -16 7 -31 11 -20 5 -29 3 -32 -6z"/>
<path d="M4063 2420 c0 -25 2 -35 4 -22 2 12 2 32 0 45 -2 12 -4 2 -4 -23z"/>
<path d="M1705 2232 c-53 -26 -93 -64 -112 -109 -78 -185 118 -366 302 -279
60 28 77 46 106 111 42 94 8 202 -82 262 -55 36 -154 43 -214 15z m164 -81
c42 -29 62 -65 63 -108 1 -55 -28 -99 -79 -124 -55 -26 -106 -18 -150 26 -43
43 -51 90 -24 149 34 78 124 105 190 57z"/>
<path d="M1753 2136 c-65 -29 -83 -117 -34 -166 49 -50 105 -52 158 -6 23 20
28 32 28 70 0 37 -5 51 -30 76 -36 36 -79 45 -122 26z m93 -40 c21 -18 28 -32
28 -60 0 -48 -24 -71 -75 -71 -76 0 -104 72 -50 126 36 35 61 37 97 5z"/>
<path d="M2098 2213 c12 -2 32 -2 45 0 12 2 2 4 -23 4 -25 0 -35 -2 -22 -4z"/>
<path d="M3183 2213 c9 -2 23 -2 30 0 6 3 -1 5 -18 5 -16 0 -22 -2 -12 -5z"/>
<path d="M2370 2189 c-136 -57 -139 -254 -5 -319 93 -45 200 -7 234 83 10 26
9 27 -24 27 -20 0 -49 -10 -71 -25 -20 -14 -45 -25 -56 -25 -28 0 -76 27 -88
50 -9 17 -8 20 8 20 11 0 25 -7 32 -15 7 -8 27 -15 45 -15 18 0 38 7 45 15 9
10 32 15 77 15 l64 0 -3 -77 -3 -78 113 -3 112 -3 0 48 0 48 -67 0 c-63 0 -68
2 -71 23 -3 20 0 22 47 22 l51 0 0 45 0 45 -98 0 -98 0 -19 42 c-29 60 -63 81
-138 85 -34 2 -73 -2 -87 -8z m128 -79 c17 -11 32 -27 32 -35 0 -21 -17 -19
-47 5 -32 25 -44 25 -77 -1 -14 -11 -34 -19 -44 -17 -14 3 -12 9 15 36 37 38
73 41 121 12z"/>
<path d="M950 2145 l0 -45 110 0 110 0 0 45 0 45 -110 0 -110 0 0 -45z"/>
<path d="M1264 2018 l71 -173 38 0 38 0 72 170 73 170 -50 3 c-30 2 -52 -1
-56 -8 -4 -7 -22 -55 -40 -106 -18 -52 -35 -92 -39 -89 -3 4 -20 50 -36 103
l-31 97 -56 3 -56 3 72 -173z"/>
<path d="M2072 2018 l3 -173 98 -3 97 -3 0 51 0 50 -52 0 -53 0 3 125 3 125
-51 0 -50 0 2 -172z"/>
<path d="M2630 2145 l0 -45 90 0 90 0 0 45 0 45 -90 0 -90 0 0 -45z"/>
<path d="M2890 2145 l0 -45 110 0 110 0 0 45 0 45 -110 0 -110 0 0 -45z"/>
<path d="M3162 2149 l3 -44 77 -5 c86 -6 104 -16 114 -67 5 -27 1 -37 -24 -63
-18 -18 -41 -30 -56 -30 -25 0 -26 2 -26 65 l0 65 -45 0 -45 0 0 -116 0 -117
71 6 c82 7 153 38 183 80 13 18 21 48 24 90 3 52 0 67 -20 96 -42 62 -68 74
-169 79 l-90 5 3 -44z"/>
<path d="M3545 2176 c-53 -23 -95 -92 -95 -156 0 -38 29 -97 64 -129 26 -25
111 -52 143 -46 10 2 30 6 46 10 l27 5 0 95 0 95 -60 0 -60 0 0 -36 c0 -27 5
-37 20 -41 11 -3 20 -14 20 -24 0 -28 -47 -15 -82 22 -36 38 -36 73 2 111 25
24 37 29 70 27 33 -3 45 2 67 24 l27 26 -37 16 c-44 18 -111 19 -152 1z"/>
<path d="M3770 2145 l0 -45 115 0 115 0 0 45 0 45 -115 0 -115 0 0 -45z"/>
<path d="M950 1955 l0 -115 111 0 110 0 -3 48 -3 47 -61 -3 c-55 -3 -62 -1
-67 17 -7 28 -1 31 65 31 l58 0 0 45 0 45 -105 0 -105 0 0 -115z"/>
<path d="M2890 1955 l0 -115 116 0 115 0 -3 48 -3 47 -70 0 c-65 0 -70 2 -73
23 -3 21 0 22 67 22 l71 0 0 45 0 45 -110 0 -110 0 0 -115z"/>
<path d="M3772 1958 l3 -113 115 0 115 0 0 45 0 45 -72 -3 c-73 -4 -73 -4 -73
22 0 25 2 26 66 26 l65 0 -3 43 -3 42 -108 3 -108 3 3 -113z"/>
<path d="M813 1890 c-13 -5 -23 -12 -23 -14 0 -14 55 -127 104 -215 174 -309
485 -597 816 -754 233 -111 447 -170 663 -183 l117 -7 0 64 0 65 -45 12 c-25
7 -62 23 -83 36 -25 16 -65 27 -126 35 -302 40 -694 260 -933 524 -41 45 -96
110 -121 143 l-46 62 -33 -16 c-18 -9 -33 -20 -33 -25 0 -11 90 -136 139 -192
126 -146 360 -330 541 -427 163 -87 464 -175 664 -193 47 -5 65 -10 58 -17
-17 -17 -220 7 -356 41 -144 37 -334 108 -436 164 -350 191 -645 499 -785 820
-39 89 -43 93 -82 77z"/>
<path d="M4144 1884 c-14 -39 -97 -210 -115 -235 -19 -27 -19 -27 7 -44 22
-14 28 -15 39 -3 17 17 106 182 128 235 15 38 15 41 -1 46 -9 3 -25 8 -34 12
-13 5 -20 1 -24 -11z"/>
<path d="M1006 1718 c40 -80 40 -81 83 -56 l38 22 -26 43 c-25 40 -28 42 -74
43 l-47 0 26 -52z"/>
<path d="M1144 1723 c58 -113 217 -296 348 -398 182 -142 264 -192 440 -269
101 -44 351 -116 363 -104 3 3 -2 21 -10 41 -35 84 -6 206 64 271 l31 30 0
238 0 238 -25 0 -25 0 0 -233 0 -233 -33 -32 c-26 -25 -41 -32 -73 -32 -53 0
-142 31 -250 86 -124 64 -166 95 -277 203 l-99 96 -24 -29 c-19 -22 -24 -35
-19 -57 5 -22 1 -34 -19 -54 -30 -30 -55 -32 -86 -7 -44 36 -17 112 40 112 17
0 38 12 59 34 l33 34 -32 56 c-27 48 -36 56 -61 56 -29 0 -39 -13 -19 -25 6
-3 10 -26 10 -50 0 -37 -3 -44 -23 -49 -13 -3 -36 -17 -52 -31 -15 -15 -31
-23 -35 -18 -22 25 -113 149 -117 160 -4 9 -26 13 -69 13 l-64 0 24 -47z m476
-195 c0 -58 -56 -125 -111 -134 -39 -6 -91 23 -117 66 -15 25 -15 25 9 -2 51
-56 123 -66 165 -21 29 31 38 60 32 109 -4 32 -3 34 9 18 7 -10 13 -26 13 -36z
m127 -213 c61 -41 155 -96 209 -122 53 -26 91 -49 84 -51 -36 -12 -435 226
-448 268 -4 12 0 11 19 -3 13 -9 74 -51 136 -92z m434 -156 c33 -33 7 -99 -41
-99 -28 0 -60 30 -60 57 0 57 61 82 101 42z"/>
<path d="M2117 1144 c-12 -13 -8 -42 8 -48 25 -9 46 5 43 28 -3 21 -37 34 -51
20z"/>
<path d="M1270 1766 c0 -2 19 -28 43 -59 23 -30 47 -63 53 -73 9 -16 13 -15
57 10 53 32 58 51 25 96 -21 29 -25 30 -100 30 -43 0 -78 -2 -78 -4z"/>
<path d="M1677 1752 c-35 -38 -7 -102 44 -102 44 0 68 89 30 110 -29 15 -56
12 -74 -8z"/>
<path d="M1925 1719 c-28 -28 -67 -58 -88 -66 -58 -24 -65 -87 -12 -112 25
-12 32 -12 54 0 14 8 30 25 36 37 6 14 19 22 35 22 19 0 48 23 110 85 76 77
82 85 58 85 -19 0 -43 -18 -92 -71 -59 -62 -70 -70 -99 -67 l-32 3 58 61 c31
33 57 64 57 67 0 22 -43 0 -85 -44z"/>
<path d="M2114 1660 c-114 -116 -121 -125 -105 -134 5 -3 54 37 110 90 64 61
101 90 101 79 0 -9 -38 -54 -85 -100 -47 -46 -85 -92 -85 -102 0 -10 -9 -24
-20 -31 -44 -27 -5 -86 41 -61 18 9 20 17 15 52 -6 42 -6 43 72 120 44 42 82
77 86 77 3 0 6 -17 6 -37 -1 -27 -9 -48 -30 -73 -22 -25 -30 -45 -30 -73 0
-30 -7 -45 -30 -67 -35 -33 -38 -52 -10 -80 26 -26 55 -25 81 1 16 16 19 28
14 47 -4 15 -9 52 -12 82 -4 49 -2 58 21 79 25 23 26 29 26 133 l0 108 -28 0
c-23 0 -50 -21 -138 -110z"/>
<path d="M2430 1517 l0 -253 -45 -47 c-71 -75 -80 -160 -23 -240 55 -77 187
-86 262 -18 78 71 73 184 -13 265 l-31 30 0 258 0 258 -30 0 -30 0 0 -280 c0
-273 0 -280 -20 -280 -20 0 -20 7 -20 280 l0 280 -25 0 -25 0 0 -253z m201
-374 c22 -47 18 -78 -13 -131 -25 -41 -65 -62 -120 -62 -108 0 -170 109 -118
210 22 43 40 59 40 36 0 -8 -4 -18 -10 -21 -5 -3 -14 -24 -21 -47 -20 -78 33
-158 106 -158 98 0 156 104 105 188 -11 18 -20 40 -20 50 1 15 2 15 16 -3 9
-11 25 -39 35 -62z m-78 0 c41 -47 10 -123 -50 -123 -63 0 -100 90 -51 124 30
21 81 20 101 -1z"/>
<path d="M2630 1529 l0 -242 39 -42 c38 -42 71 -121 71 -169 -1 -12 -9 -45
-19 -73 l-18 -53 21 0 c37 0 216 50 310 86 302 116 610 359 782 614 27 40 64
107 64 117 0 1 -27 3 -59 3 l-59 0 -59 -82 c-32 -45 -61 -87 -64 -92 -4 -5
-22 3 -40 17 -19 13 -44 28 -56 32 -18 5 -23 14 -23 41 0 19 7 46 16 59 16 25
16 25 -15 25 -26 0 -35 -8 -66 -56 l-36 -57 32 -33 c24 -25 42 -34 64 -34 64
0 88 -71 38 -110 -49 -38 -108 -5 -101 58 3 25 -2 38 -23 58 l-27 26 -83 -83
c-104 -102 -177 -156 -282 -210 -118 -60 -201 -89 -255 -89 -41 0 -53 5 -80
33 l-32 33 0 232 c0 225 -1 232 -20 232 -19 0 -20 -7 -20 -241z m780 42 c-14
-28 -12 -67 5 -101 36 -69 111 -81 171 -27 28 23 34 26 26 11 -18 -34 -62 -57
-110 -58 -38 -1 -48 4 -78 36 -27 30 -34 46 -34 79 0 37 14 79 26 79 2 0 0 -9
-6 -19z m3 -171 c-4 -5 -57 -43 -118 -85 -113 -79 -304 -180 -326 -173 -7 2
39 30 102 61 102 51 168 92 294 185 22 16 44 27 48 25 5 -3 5 -9 0 -13z m-503
-242 c25 -28 26 -52 0 -78 -55 -55 -135 24 -83 82 22 24 58 23 83 -4z"/>
<path d="M2840 1135 c-10 -12 -10 -18 0 -30 7 -8 18 -15 25 -15 7 0 18 7 25
15 10 12 10 18 0 30 -7 8 -18 15 -25 15 -7 0 -18 -7 -25 -15z"/>
<path d="M2720 1665 c0 -102 1 -105 30 -138 34 -39 40 -97 15 -131 -8 -11 -15
-28 -15 -38 0 -24 35 -58 60 -58 24 0 60 34 60 56 0 8 -13 29 -30 46 -24 23
-30 38 -30 72 0 32 -6 48 -25 66 -19 18 -25 33 -25 68 l0 44 85 -84 c85 -83
85 -84 73 -116 -11 -27 -10 -34 4 -49 14 -14 22 -15 43 -5 28 13 35 59 10 68
-8 4 -15 13 -15 21 0 9 -41 54 -90 102 -50 48 -90 94 -90 104 0 13 31 -10 102
-77 56 -53 105 -96 110 -96 25 0 -4 39 -104 138 -89 88 -119 112 -140 112
l-28 0 0 -105z"/>
<path d="M2940 1685 c71 -71 90 -85 117 -85 25 0 32 -5 35 -22 4 -27 50 -52
78 -43 11 4 28 17 36 30 22 33 1 76 -44 91 -18 5 -57 34 -86 63 -32 32 -60 52
-71 49 -13 -2 -4 -17 39 -65 31 -33 56 -64 56 -67 0 -3 -12 -6 -28 -6 -21 0
-44 17 -97 70 -49 50 -77 70 -95 70 -22 0 -14 -10 60 -85z"/>
<path d="M3248 1759 c-23 -13 -24 -72 -2 -93 33 -33 94 -5 94 43 0 49 -49 75
-92 50z"/>
<path d="M3561 1741 c-21 -29 -29 -81 -12 -81 4 0 24 -11 43 -24 l36 -24 51
74 c28 41 51 76 51 79 0 3 -33 5 -74 5 -71 0 -76 -1 -95 -29z"/>
<path d="M3903 1727 l-21 -43 39 -21 38 -21 24 42 c54 92 54 86 -6 86 -53 0
-53 0 -74 -43z"/>
<path d="M3843 1622 c-60 -104 -337 -371 -476 -457 -137 -86 -278 -154 -409
-196 -70 -22 -207 -49 -253 -49 -17 0 -50 -14 -74 -30 -25 -17 -61 -33 -81
-36 l-37 -6 -1 -66 -1 -65 120 6 c363 20 753 181 1067 441 89 73 222 216 304
325 l56 75 -30 19 c-30 18 -31 18 -44 -2 -213 -303 -509 -541 -834 -670 -69
-27 -170 -62 -225 -76 -118 -31 -364 -60 -379 -45 -7 7 5 10 34 10 55 0 216
30 325 59 199 54 325 109 475 208 137 89 176 120 273 212 117 110 139 134 230
253 l68 87 -40 21 c-22 11 -42 20 -43 20 -2 0 -13 -17 -25 -38z"/>
</g>
</svg>
